<?xml version="1.0" standalone="no"?>
<!DOCTYPE svg PUBLIC "-//W3C//DTD SVG 20010904//EN"
 "http://www.w3.org/TR/2001/REC-SVG-20010904/DTD/svg10.dtd">
<svg version="1.0" xmlns="http://www.w3.org/2000/svg"
 width="1500.000000pt" height="500.000000pt" viewBox="0 0 1500.000000 500.000000"
 preserveAspectRatio="xMidYMid meet">
<metadata>
Created by potrace 1.15, written by Peter Selinger 2001-2017
</metadata>
<g transform="translate(0.000000,500.000000) scale(0.100000,-0.100000)"
fill="#000000" stroke="none">
<path d="M5135 4651 c-462 -166 -1015 -364 -1182 -425 -138 -50 -321 -133
-750 -340 -544 -262 -578 -277 -803 -351 l-235 -77 -55 -61 c-30 -33 -135
-147 -233 -252 l-178 -190 -165 -329 -166 -330 -10 -137 c-7 -94 -7 -191 0
-302 l10 -163 118 -197 119 -196 61 -21 c34 -11 70 -27 80 -35 10 -8 27 -15
36 -15 9 0 29 -16 43 -34 41 -53 111 -93 187 -106 64 -11 71 -16 140 -81 81
-78 117 -92 253 -103 112 -10 209 -31 365 -81 74 -24 234 -66 355 -94 l220
-50 310 -11 310 -10 200 31 c200 30 201 30 525 26 419 -6 597 -24 730 -74 52
-19 148 -55 214 -79 65 -24 124 -48 130 -52 6 -5 94 -37 196 -70 158 -52 221
-67 426 -102 240 -40 243 -40 385 -30 79 5 218 14 309 20 91 6 226 22 300 35
95 17 191 25 325 29 188 5 192 5 525 -44 l335 -49 421 -11 c450 -11 437 -12
734 39 111 19 174 36 195 51 33 25 523 170 770 229 559 132 552 130 730 141
478 29 638 43 955 80 190 22 369 45 399 50 90 16 405 121 421 139 8 10 33 28
55 41 78 45 128 95 242 236 l114 143 30 177 c34 201 38 155 -41 497 -27 115
-53 214 -58 220 -5 7 -49 64 -99 127 -49 63 -121 157 -160 207 -64 85 -114
129 -579 512 l-509 419 -600 281 -600 280 -401 100 -401 100 -779 41 c-963 50
-998 53 -1379 136 -197 43 -205 43 -580 64 -209 11 -400 22 -425 25 -25 2 -88
7 -140 10 -52 3 -115 8 -140 10 -25 3 -245 21 -490 40 -342 27 -500 35 -685
35 l-240 -1 -190 -68z m526 8 c-164 -59 -305 -162 -461 -335 l-110 -123 -153
-77 c-83 -42 -170 -89 -192 -104 -35 -23 -85 -44 -85 -35 0 6 141 85 257 144
131 67 172 101 280 234 70 85 207 201 295 247 74 40 184 78 223 79 21 0 5 -9
-54 -30z m-142 17 c-2 -2 -71 -27 -154 -56 -173 -60 -294 -115 -348 -160 -20
-17 -80 -83 -133 -146 -52 -62 -110 -124 -127 -136 -18 -12 -39 -29 -47 -37
-26 -25 -363 -182 -384 -179 -13 2 46 34 149 82 208 96 271 139 355 241 110
136 198 217 275 254 96 47 353 139 389 140 16 1 27 -1 25 -3z m1592 -105 c-16
-29 -68 -69 -130 -101 -31 -15 -95 -57 -143 -93 -116 -87 -175 -120 -301 -167
-110 -41 -287 -94 -293 -87 -2 2 56 23 128 46 163 52 305 121 418 203 47 34
122 81 167 105 45 24 95 59 110 78 31 37 61 48 44 16z m295 -62 c-55 -27 -179
-74 -275 -105 -190 -60 -247 -89 -375 -189 -82 -64 -226 -145 -256 -145 -8 0
19 18 60 40 41 22 118 73 170 115 116 92 172 119 375 184 88 29 205 74 260
101 55 26 109 48 120 48 11 1 -25 -22 -79 -49z m-3137 -1755 c-7 -9 -74 -61
-149 -117 -135 -100 -250 -209 -525 -499 -72 -75 -143 -143 -160 -151 -18 -9
23 39 105 122 74 75 194 197 265 272 92 96 170 166 265 237 74 55 149 112 165
126 34 28 55 35 34 10z m7760 -147 c-2 -1 -19 -12 -37 -25 -48 -34 -114 -60
-235 -93 -140 -38 -156 -47 -252 -139 -44 -42 -100 -91 -125 -107 -52 -35
-296 -173 -306 -173 -13 0 95 71 200 132 77 44 139 90 208 154 97 91 99 92
200 124 168 52 240 79 293 109 28 16 52 27 54 25 2 -2 2 -5 0 -7z m-10325
-148 c50 -43 75 -88 87 -155 9 -50 18 -67 58 -109 26 -27 61 -69 78 -92 31
-45 59 -69 108 -97 27 -15 27 -16 5 -10 -52 13 -111 57 -152 112 -23 31 -61
78 -85 103 -34 37 -44 56 -49 95 -8 60 -24 93 -71 145 -42 46 -28 52 21 8z
m11624 -217 c40 -75 67 -162 91 -286 11 -55 29 -144 41 -196 28 -127 29 -290
0 -290 -4 0 -6 37 -3 83 4 68 0 106 -27 222 -17 77 -39 185 -49 240 -20 108
-69 246 -103 292 -21 27 -21 27 -1 10 11 -10 34 -44 51 -75z m-1471 -228 c-8
-8 -830 -23 -842 -15 -5 3 26 9 70 12 109 7 780 10 772 3z m517 -23 c10 -16
-58 -22 -369 -31 -330 -10 -403 -19 -525 -67 -167 -66 -296 -149 -337 -218
-11 -18 -12 -18 -12 11 -1 48 65 102 211 173 197 97 315 120 628 122 91 1 206
4 255 8 136 12 143 12 149 2z m-1599 -20 c3 -6 -11 -13 -32 -16 -100 -17 -254
-59 -346 -93 -56 -22 -278 -119 -493 -216 -215 -97 -398 -176 -407 -176 -10 0
-17 4 -17 9 0 14 823 379 950 421 103 35 276 77 322 79 9 1 19 -3 23 -8z
m2140 -12 c3 -4 3 -24 -1 -46 -4 -29 -13 -43 -36 -56 -29 -16 -30 -21 -25 -61
6 -39 3 -46 -27 -75 -36 -35 -40 -33 -69 25 -13 24 -14 47 -8 109 9 97 24 114
105 111 30 -1 58 -4 61 -7z m-7427 -111 c95 -8 139 -8 151 -1 13 8 58 5 169
-11 84 -13 155 -26 159 -29 11 -11 -32 -8 -169 13 -97 15 -134 18 -144 9 -10
-8 -61 -7 -199 6 -285 26 -324 18 -646 -136 -196 -94 -384 -167 -397 -155 -9
9 -3 12 93 44 50 17 185 76 301 131 117 56 245 110 285 121 88 23 207 25 397
8z m3489 -629 c-31 -18 -232 -87 -319 -110 -90 -24 -145 -26 -565 -19 -186 3
-223 6 -223 19 0 12 45 13 323 7 369 -8 394 -5 607 69 116 40 223 61 177 34z
m2657 -284 c141 -36 287 -49 471 -42 182 7 268 19 584 82 124 25 227 42 230
40 13 -13 -27 -26 -182 -59 -245 -53 -374 -73 -543 -86 -290 -22 -579 23 -723
114 -58 37 -51 39 13 5 30 -17 98 -41 150 -54z"/>
</g>
</svg>
